<svg width="377" height="520" viewBox="0 0 377 520" fill="none" xmlns="http://www.w3.org/2000/svg">
<g clip-path="url(#clip0_44_2604)">
<path d="M176.164 508.324L186.029 498.929C110.983 467.211 56.202 396.681 47.1816 312.645C131.907 321.752 202.937 377.152 234.384 452.862L330.354 361.447C330.354 361.447 332.825 358.466 336.573 353.944C336.388 354.129 336.203 354.314 336.038 354.519C401.569 248.714 388.492 107.676 296.6 15.9108L280.66 0L264.658 15.9519C212.698 67.8368 184.072 136.763 184.072 210.089C184.072 261.973 198.468 311.679 225.282 354.704C174.928 299.921 102.683 265.571 22.5508 265.571H0V288.101C0 290.136 0.0205943 292.151 0.061783 294.165C1.8329 375.713 42.1772 451.649 107.379 500.821L121.465 511.448C138.003 523.926 161.151 522.59 176.164 508.303V508.324ZM280.66 353.615L280.598 353.553C247.791 313.057 229.977 262.981 229.977 210.089C229.977 157.196 247.791 107.203 280.598 66.6856L280.66 66.6034C348.024 150.063 348.024 270.217 280.66 353.615Z" fill="#FCB44A"/>
<path d="M47.1816 312.646C56.202 396.681 110.983 467.211 186.029 498.93L234.384 452.883C202.937 377.173 131.907 321.773 47.1816 312.666V312.646Z" fill="#163029"/>
<path d="M280.597 66.6856C247.791 107.203 229.977 157.258 229.977 210.089C229.977 262.919 247.791 313.036 280.597 353.553L280.659 353.615C348.023 270.217 348.023 150.063 280.659 66.6034L280.597 66.6856Z" fill="#163029"/>
</g>
<defs>
<clipPath id="clip0_44_2604">
<rect width="377" height="520" fill="white"/>
</clipPath>
</defs>
</svg>
